<svg fill="none" height="15" viewBox="0 0 15 15" width="15" xmlns="http://www.w3.org/2000/svg"><path clip-rule="evenodd" d="m7.5 3c-1.38071 0-2.5 1.11929-2.5 2.5s1.11929 2.5 2.5 2.5 2.5-1.11929 2.5-2.5-1.11929-2.5-2.5-2.5zm1.9979 5.37412c.9079-.63231 1.5021-1.68383 1.5021-2.87412 0-1.933-1.567-3.5-3.5-3.5s-3.5 1.567-3.5 3.5c0 1.19029.59418 2.24181 1.5021 2.87412-2.04979.79953-3.5021 2.79308-3.5021 5.12588 0 .2761.22386.5.5.5s.5-.2239.5-.5c0-2.4853 2.01472-4.5 4.5-4.5s4.5 2.0147 4.5 4.5c0 .2761.2239.5.5.5s.5-.2239.5-.5c0-2.3328-1.4523-4.32635-3.5021-5.12588z" fill="#151515" fill-rule="evenodd"/></svg>